<svg xmlns="http://www.w3.org/2000/svg" width="19" height="32" viewBox="0 0 19 32"><path fill="#54565a" d="M10.087 15.753a.36.36 0 010 .478c-.9 1.012-4.569 5.136-9.227 10.312a2.539 2.539 0 00-.648 2.833l-.006-.017c.27.523.599.971.986 1.362.43.448.936.819 1.498 1.093l.031.014a2.378 2.378 0 002.47-.483l-.002.001a92.252 92.252 0 0012.517-12.62l.131-.165c.58-.69.933-1.588.933-2.568s-.353-1.878-.938-2.574l.005.006A91.602 91.602 0 005.334.771l-.148-.12A2.376 2.376 0 003.568.019c-.303 0-.593.056-.859.159l.016-.006a5.321 5.321 0 00-1.532 1.107l-.002.002A5.51 5.51 0 00.22 2.612l-.014.03A2.54 2.54 0 00.86 5.456l.002.002c4.657 5.173 8.325 9.285 9.225 10.295z"/></svg>