<svg xmlns="http://www.w3.org/2000/svg" width="25" height="25" viewBox="0 0 25 25"><path d="M19.894 11.082C15.865 8.689 9.218 8.469 5.372 9.637a1.17 1.17 0 11-.679-2.238c4.415-1.34 11.756-1.081 16.394 1.672a1.17 1.17 0 01-1.193 2.011zm-.132 3.544a.975.975 0 01-1.341.321A16.408 16.408 0 005.965 13.49a.974.974 0 11-.566-1.865 18.235 18.235 0 0114.042 1.661.975.975 0 01.321 1.34zm-1.53 3.4a.778.778 0 01-1.071.259c-2.935-1.794-6.63-2.2-10.981-1.205a.78.78 0 11-.347-1.519c4.762-1.088 8.846-.62 12.141 1.393a.779.779 0 01.259 1.075zM12.5 0A12.5 12.5 0 1025 12.5 12.5 12.5 0 0012.5 0z" fill="#1ed760" fill-rule="evenodd"/></svg>