<svg xmlns="http://www.w3.org/2000/svg" width="25" height="25" viewBox="0 0 225 225"   xmlns:v="https://vecta.io/nano"><path fill="#fffefe" d="M148 226H1V1h225v225h-78m-24.5-35.922c5.833-.027 11.684.23 17.496-.132 18.433-1.148 36.919-1.938 55.252-4.028 11.62-1.325 19.52-9.033 21.599-20.553 2.235-12.392 3.481-25.045 4.056-37.634.943-20.642.523-41.298-2.862-61.782-2.376-14.382-9.951-22.675-24.295-25.249-7.997-1.435-16.186-2.441-24.295-2.492-38.31-.241-76.623-.184-114.934.016-7.132.037-14.302.906-21.376 1.933C17.308 42.599 9.071 52.544 6.961 71.878c-3.029 27.762-3.114 55.495.005 83.258 2.164 19.261 10.066 28.837 26.695 31.63 3.605.606 7.265 1.089 10.913 1.197l78.925 2.115z"/><path fill="#ff0101" d="M123 190.079l-78.425-2.116c-3.648-.108-7.308-.592-10.913-1.197-16.63-2.793-24.532-12.369-26.695-31.63-3.119-27.762-3.034-55.495-.005-83.258 2.11-19.334 10.347-29.279 27.179-31.722 7.074-1.027 14.245-1.895 21.376-1.933l114.934-.016c8.11.051 16.299 1.057 24.295 2.492 14.344 2.574 21.919 10.867 24.295 25.249 3.385 20.484 3.804 41.14 2.862 61.782-.575 12.589-1.821 25.242-4.056 37.634-2.078 11.52-9.978 19.228-21.599 20.553-18.333 2.09-36.819 2.881-55.252 4.028-5.812.362-11.663.106-17.996.133m-28.014-46.242l53.291-30.359-56.966-32.38v64.412l3.675-1.673z"/><path fill="#fffcfc" d="M94.612 143.992l-3.302 1.518V81.097l56.966 32.38-53.665 30.515z"/></svg>