<svg xmlns="http://www.w3.org/2000/svg" width="25" height="25" viewBox="0 0 25 25"><path d="M10.938 7.955v9.091h3.125V7.955z" fill="#fab908" fill-rule="evenodd"/><circle cx="1.563" cy="1.563" r="1.563" transform="translate(0 10.085)" fill="#0066d9"/><circle data-name="Oval" cx="1.563" cy="1.563" r="1.563" transform="translate(0 11.79)" fill="#0066d9"/><path fill="#0066d9" d="M0 11.648h3.125v1.705H0z"/><circle data-name="Oval" cx="1.563" cy="1.563" r="1.563" transform="translate(21.875 11.79)" fill="#4285f4"/><circle data-name="Oval" cx="1.563" cy="1.563" r="1.563" transform="translate(21.875 10.085)" fill="#4285f4"/><path data-name="Rectangle-path" fill="#4285f4" d="M25 13.352h-3.125v-1.705H25z"/><circle data-name="Oval" cx="1.563" cy="1.563" r="1.563" transform="translate(5.398 15.199)" fill="#ea4335"/><circle data-name="Oval" cx="1.563" cy="1.563" r="1.563" transform="translate(5.398 16.903)" fill="#ea4335"/><path data-name="Rectangle-path" fill="#ea4335" d="M5.398 16.761h3.125v1.705H5.398z"/><circle data-name="Oval" cx="1.563" cy="1.563" r="1.563" transform="translate(5.398 4.972)" fill="#ea4335"/><circle data-name="Oval" cx="1.563" cy="1.563" r="1.563" transform="translate(5.398 10.511)" fill="#ea4335"/><path data-name="Rectangle-path" fill="#ea4335" d="M5.398 6.534h3.125v5.575H5.398z"/><circle data-name="Oval" cx="1.563" cy="1.563" r="1.563" transform="translate(16.477 6.676)" fill="#34a853"/><circle data-name="Oval" cx="1.563" cy="1.563" r="1.563" transform="translate(16.477 4.972)" fill="#34a853"/><path data-name="Rectangle-path" fill="#34a853" d="M19.602 8.239h-3.125V6.534h3.125z"/><circle data-name="Oval" cx="1.563" cy="1.563" r="1.563" transform="translate(10.938 1.705)" fill="#fab908"/><circle data-name="Oval" cx="1.563" cy="1.563" r="1.563" transform="translate(10.938)" fill="#fab908"/><path data-name="Rectangle-path" fill="#fab908" d="M14.063 3.267h-3.125V1.562h3.125z"/><circle data-name="Oval" cx="1.563" cy="1.563" r="1.563" transform="translate(10.938 21.875)" fill="#fab908"/><circle data-name="Oval" cx="1.563" cy="1.563" r="1.563" transform="translate(10.938 20.17)" fill="#fab908"/><path data-name="Rectangle-path" fill="#fab908" d="M14.063 23.438h-3.125v-1.705h3.125z"/><circle data-name="Oval" cx="1.563" cy="1.563" r="1.563" transform="translate(16.477 16.903)" fill="#34a853"/><circle data-name="Oval" cx="1.563" cy="1.563" r="1.563" transform="translate(16.477 11.364)" fill="#34a853"/><path data-name="Rectangle-path" fill="#34a853" d="M19.602 18.466h-3.125v-5.54h3.125z"/><circle data-name="Oval" cx="1.563" cy="1.563" r="1.563" transform="translate(10.938 6.392)" fill="#fab908"/><circle data-name="Oval" cx="1.563" cy="1.563" r="1.563" transform="translate(10.938 15.483)" fill="#fab908"/></svg>