<svg xmlns="http://www.w3.org/2000/svg" width="24.195" height="24.195" viewBox="0 0 24.195 24.195"><defs><linearGradient id="a" x1=".5" x2=".5" y2="1" gradientUnits="objectBoundingBox"><stop offset="0" stop-color="#f452ff"/><stop offset="1" stop-color="#832bc1"/></linearGradient></defs><g data-name="Group 40"><path d="M24.214 21.373a5.122 5.122 0 01-3.251 2.916 10.533 10.533 0 01-2.924.308H7.151a10.534 10.534 0 01-2.924-.308 5.122 5.122 0 01-3.252-2.916A9.484 9.484 0 01.5 17.944V7.056a9.484 9.484 0 01.475-3.43A5.122 5.122 0 014.226.71 10.533 10.533 0 017.151.4h10.887a10.534 10.534 0 012.925.31 5.122 5.122 0 013.251 2.916 9.484 9.484 0 01.479 3.429v10.889a9.485 9.485 0 01-.479 3.429z" transform="translate(-.497 -.402)" fill-rule="evenodd" fill="url(#a)"/><path d="M13.849 13.908a2.423 2.423 0 00-1.75-.625 2.423 2.423 0 00-1.75.625 1.112 1.112 0 00-.321.7 9.05 9.05 0 00.039 1.83c.063.742.183 1.73.339 2.737a10.414 10.414 0 00.284 1.381 1.369 1.369 0 001.412.842 1.369 1.369 0 001.412-.842 10.414 10.414 0 00.284-1.381c.156-1.007.276-2 .339-2.737a9.05 9.05 0 00.039-1.83 1.113 1.113 0 00-.327-.7zm-3.729-3.411a1.98 1.98 0 101.98-1.98 1.98 1.98 0 00-1.98 1.98zm1.956-7.814a8.508 8.508 0 00-2.791 16.536.114.114 0 00.151-.124 46.813 46.813 0 01-.123-.872.293.293 0 00-.172-.23 7.42 7.42 0 115.921 0 .292.292 0 00-.172.231c-.038.288-.079.58-.123.871a.114.114 0 00.151.124 8.508 8.508 0 00-2.842-16.536zm-.154 3.9a4.609 4.609 0 013.336 7.968.353.353 0 00-.111.277 8.152 8.152 0 01-.01.972.112.112 0 00.175.1 5.7 5.7 0 10-6.415 0 .112.112 0 00.174-.1 8.157 8.157 0 01-.01-.972.353.353 0 00-.111-.277 4.609 4.609 0 012.972-7.968z" fill="#fff"/></g></svg>