<svg xmlns="http://www.w3.org/2000/svg" width="261.072" height="53" viewBox="0 0 261.072 53"><defs><clipPath id="a"><path data-name="Clip 6" d="M0 0h28.811v24.873H0z" fill="none"/></clipPath><clipPath id="b"><path data-name="Clip 18" d="M0 0h261.072v34.78H0z" fill="none"/></clipPath></defs><path data-name="Fill 1" d="M75.679 27.603c-.07.21-.14.279-.349.21l-.7-.07c-.14 0-.21-.07-.21-.349.559-3.422-.908-7.124-4.889-7.124-2.445 0-4.33 1.118-6.286 3.981a19.915 19.915 0 00-3.422 10.9c0 4.889 3.143 6.355 4.959 6.355 2.654 0 6.146-.838 8.521-6.076.14-.21.21-.279.349-.21l.7.21c.21.07.21.14.21.279l-2.514 7.543c-.07.14-.14.209-.349.14l-.7-.14c-.07-.07-.14-.14-.07-.279 0-.21.07-.419.07-.629a.54.54 0 00-.489-.559 3.964 3.964 0 00-1.467.419 14.046 14.046 0 01-4.819.978c-5.237-.004-8.869-3.287-8.869-8.211a17.2 17.2 0 014.958-12.187 12.108 12.108 0 019.01-4.051 7.875 7.875 0 014.609 1.327 3.41 3.41 0 001.606.908c.489 0 .769-.279.908-.908.07-.21.21-.279.349-.21l.559.14c.21 0 .279.14.21.349l-1.885 7.264" fill="#fffffe"/><path data-name="Fill 2" d="M81.128 43.003a4.015 4.015 0 01-2.868-1.187 4.96 4.96 0 01-1.322-3.596 11.54 11.54 0 012.933-7.858 6.478 6.478 0 014.959-2.235 4.136 4.136 0 014.33 4.4 13.563 13.563 0 01-.716 4.06 11.527 11.527 0 01-2.287 4.112 6.23 6.23 0 01-5.029 2.304zm4.365-13.06c-1.421 0-2.755 1.222-4.47 4.084a12.091 12.091 0 00-1.85 5.448 1.563 1.563 0 001.465 1.643c1.387 0 2.652-1.032 3.981-3.248 1.287-2.191 2.375-5.1 2.375-6.355a1.476 1.476 0 00-1.501-1.572z" fill="#fffffe"/><path data-name="Fill 3" d="M97.297 22.47c.454-1.222.419-2.13-.629-2.13h-1.117c-.14 0-.174-.105-.14-.279l.21-.8c.035-.1.1-.175.279-.175h5.383c.314 0 .384.21.279.524l-7.058 19.064c-.349.908-.7 2.095 0 2.095s2.1-1.327 2.514-1.816c.14-.07.21-.07.349.07l.419.349c.07.14.14.21 0 .419s-3.143 3.213-6.216 3.213a1.239 1.239 0 01-1.187-1.257 21.7 21.7 0 011.118-3.492l5.8-15.784" fill="#fffffe"/><path data-name="Fill 4" d="M106.308 22.47c.454-1.222.419-2.13-.629-2.13h-1.117c-.14 0-.174-.105-.14-.279l.21-.8c.035-.1.1-.175.279-.175h5.377c.314 0 .384.21.279.524l-7.053 19.064c-.349.908-.7 2.095 0 2.095s2.1-1.327 2.514-1.816c.14-.07.21-.07.349.07l.419.349c.07.14.14.21 0 .419s-3.142 3.213-6.215 3.213a1.239 1.239 0 01-1.187-1.257 21.652 21.652 0 011.118-3.492l5.8-15.784" fill="#fffffe"/><g data-name="Group 8"><path data-name="Clip 6" d="M108.892 28.127h28.811V53h-28.811z" fill="none"/><g data-name="Group 8" clip-path="url(#a)" fill="#fffffe" transform="translate(108.892 28.127)"><path data-name="Fill 5" d="M3.7 14.876a3.75 3.75 0 01-2.715-.934A3.7 3.7 0 010 11.174a13.036 13.036 0 014.33-9.009A8.152 8.152 0 019.569 0a2.192 2.192 0 012.444 2.06c0 1.762-1.141 3.362-3.212 4.505A12.892 12.892 0 013.7 8.032a8.22 8.22 0 00-.349 2.585 2.05 2.05 0 001.886 2.235 4.922 4.922 0 003.772-2.1.325.325 0 01.2-.1.105.105 0 01.076.029l.523.384c.171.1.176.171.105.314A7.909 7.909 0 013.7 14.876zm4.19-13.2c-.77 0-1.641.679-2.453 1.912a10.952 10.952 0 00-1.455 3.327 7.091 7.091 0 003.491-1.328A3.821 3.821 0 008.94 2.933c0-.295-.076-1.257-1.048-1.257z"/><path data-name="Fill 7" d="M16.869 24.9a10.662 10.662 0 01-5.317-1.327c-1.415-.831-2.226-1.926-2.226-3.005a3.079 3.079 0 011.467-2.653 16.111 16.111 0 014.327-2.346l.073-.029a2.533 2.533 0 01-1.327-2.1c0-.764.982-1.609 3-2.584l.07-.139a3.98 3.98 0 01-2.861-4.082 6.953 6.953 0 011.773-4.287A6.583 6.583 0 0120.92 0a4.273 4.273 0 013.406 1.48l.02.022A5.533 5.533 0 0127.275.349a1.494 1.494 0 011.537 1.536 1.205 1.205 0 01-1.257 1.257 1.563 1.563 0 01-1.187-.489.734.734 0 00-.629-.349 1.229 1.229 0 00-.838.418 6.835 6.835 0 01.21 1.781 7.092 7.092 0 01-1.24 3.571 6.241 6.241 0 01-4.278 2.785c-.75.136-1.252.209-1.327.209-.721.361-1.467 1.061-1.467 1.607 0 .357.439.782.7.977.315.227.909.559 1.731 1.018s1.867 1.043 3.088 1.776c1.786 1.072 2.654 2.214 2.654 3.492a4.239 4.239 0 01-2.515 3.7 10.526 10.526 0 01-5.588 1.262zm-.8-8.661c-2.327 1.069-3.458 2.3-3.458 3.771a3.139 3.139 0 001.58 2.733 6.665 6.665 0 003.518.9 5.713 5.713 0 002.61-.607 2.149 2.149 0 001.3-1.837c0-1.509-.923-2.168-2.444-3.073l-.188-.112c-.672-.4-2.455-1.464-2.919-1.773zm4.644-15.12c-.755 0-1.311.394-1.921 1.361a8.819 8.819 0 00-1.574 5.342c0 1.316.411 1.956 1.257 1.956 1.3 0 2.16-1.463 2.558-2.335a10.979 10.979 0 00.934-4.2c0-1.508-.364-2.125-1.257-2.125z"/></g></g><path data-name="Fill 9" d="M140.951 43.003a3.75 3.75 0 01-2.715-.934 3.7 3.7 0 01-.985-2.768 13.033 13.033 0 014.33-9.009 8.148 8.148 0 015.239-2.165 2.192 2.192 0 012.444 2.06c0 1.762-1.141 3.362-3.213 4.505a12.886 12.886 0 01-5.1 1.467 8.22 8.22 0 00-.349 2.585 2.05 2.05 0 001.886 2.235 4.917 4.917 0 003.771-2.1.33.33 0 01.2-.1.1.1 0 01.076.029l.524.384c.171.1.176.171.1.314a7.9 7.9 0 01-6.208 3.497zm4.19-13.2c-.77 0-1.641.679-2.453 1.912a10.952 10.952 0 00-1.455 3.327 7.1 7.1 0 003.491-1.328 3.821 3.821 0 001.467-2.654c0-.295-.076-1.257-1.048-1.257z" fill="#fffffe"/><path data-name="Fill 10" d="M69.087 9.85c.671-1.006 1.594-2.04 2.657-2.04.867 0 1.119.671 1.119 1.3a6.789 6.789 0 01-.923 3.091c-.615 1.118-1.4 1.874-2.322 1.874a.766.766 0 01-.811-.755.655.655 0 01.587-.7.5.5 0 01.5.475c.028.2.084.377.279.377.307 0 .6-.881.839-1.608a9.575 9.575 0 00.531-2.5c0-.322-.084-.657-.419-.657-.615 0-1.65 1.175-2.042 1.678a6.84 6.84 0 00-.778 1.425l-.73 1.706c-.028.084-.07.112-.168.112h-.892c-.126 0-.154-.084-.112-.2l2.951-7.66a1.526 1.526 0 00.154-.447.218.218 0 00-.043-.171 9.477 9.477 0 00-2.867-.361h-.279l-2.21 7.133c-.279.881-.14 1.189.587 1.189h.559c.07 0 .1.056.084.14l-.056.28a.148.148 0 01-.168.14c-.2 0-.755-.042-2.07-.042-1.37-.001-2.11.041-2.25.041-.1 0-.14-.056-.126-.14l.028-.307c.014-.084.056-.112.168-.112h.363c.783 0 1.049-.363 1.371-1.412l2.154-6.91h-.364a4.218 4.218 0 00-2.223.307 12.6 12.6 0 00-1.553 1.567.2.2 0 01-.168.056l-.224-.139c-.056-.03-.056-.084-.028-.14.168-.308 1.035-2.266 1.063-2.35s.056-.14.14-.14c.056 0 .112.028.224.112a9.5 9.5 0 002.405.2h4.462a8.9 8.9 0 002.6-.252c.057-.032.088-.06.141-.06a.1.1 0 01.112.112 1.386 1.386 0 01-.21.7l-2.126 5.006.084.084" fill="#fffffe"/><path data-name="Fill 11" d="M74.582 13.768a1.337 1.337 0 01-1.482-1.482 5.221 5.221 0 011.733-3.608 3.263 3.263 0 012.098-.868.878.878 0 01.979.825 2.134 2.134 0 01-1.287 1.8 5.155 5.155 0 01-2.041.588 3.251 3.251 0 00-.14 1.035.812.812 0 00.755.895 1.971 1.971 0 001.51-.839.136.136 0 01.082-.039.041.041 0 01.03.012l.21.154c.068.041.07.069.041.126a3.163 3.163 0 01-2.488 1.401zm1.678-5.287c-.711 0-1.407 1.386-1.566 2.1a2.849 2.849 0 001.4-.532 1.535 1.535 0 00.587-1.063c-.002-.12-.032-.505-.421-.505z" fill="#fffffe"/><path data-name="Fill 12" d="M40.986 44.532h.872V1.273h-.872z" fill="#fffffe"/><path data-name="Fill 13" d="M161.066 24.036v17.933h-5.456V24.036h-6.383v-4.659h18.221v4.659h-6.382" fill="#fffffe"/><path data-name="Fill 14" d="M180.212 42.576a13.647 13.647 0 01-4.9-.861 11.539 11.539 0 01-3.891-2.444 11.176 11.176 0 01-2.569-3.8 12.652 12.652 0 01-.925-4.894 12.5 12.5 0 01.925-4.9 10.753 10.753 0 012.569-3.715 11.51 11.51 0 013.893-2.361 14.1 14.1 0 014.9-.83 14.25 14.25 0 014.913.83 11.466 11.466 0 013.909 2.362 10.793 10.793 0 012.569 3.717 12.526 12.526 0 01.925 4.9 12.683 12.683 0 01-.925 4.9 11.217 11.217 0 01-2.569 3.8 11.492 11.492 0 01-3.909 2.435 13.788 13.788 0 01-4.915.861zm0-18.891a6.281 6.281 0 00-4.658 1.962 6.253 6.253 0 00-1.327 2.186 8.048 8.048 0 00-.462 2.744 8.1 8.1 0 00.478 2.824 6.736 6.736 0 001.324 2.219 6.088 6.088 0 002.029 1.451 6.379 6.379 0 002.616.527 6.387 6.387 0 002.615-.527 6.258 6.258 0 002.042-1.452 6.592 6.592 0 001.34-2.219 8.1 8.1 0 00.479-2.824 7.783 7.783 0 00-.479-2.744 6.589 6.589 0 00-1.324-2.186 6.157 6.157 0 00-2.042-1.435 6.5 6.5 0 00-2.631-.526z" fill="#fffffe"/><path data-name="Fill 15" d="M204.559 41.97h-8.424V19.377h8.169a20.259 20.259 0 014.722.559 11.911 11.911 0 014.149 1.85 9.526 9.526 0 012.936 3.462 11.681 11.681 0 011.116 5.36 11.18 11.18 0 01-1.1 5.122 10.379 10.379 0 01-2.9 3.542 12.161 12.161 0 01-4.068 2.042 16.59 16.59 0 01-4.6.656zm-3.095-17.934v13.211h2.585a11.8 11.8 0 002.824-.335 6.724 6.724 0 002.393-1.1 5.475 5.475 0 001.66-2.042 7.214 7.214 0 00.622-3.16 7.187 7.187 0 00-.622-3.174 5.375 5.375 0 00-1.66-2.011 6.684 6.684 0 00-2.362-1.069 11.676 11.676 0 00-2.728-.319z" fill="#fffffe"/><path data-name="Fill 16" d="M223.227 41.97h-5.935l9.477-22.593h5.3l9.381 22.591h-6.065l-1.755-4.436h-8.738l-1.66 4.436zm6.1-16.562l-2.877 7.754h5.68z" fill="#fffffe"/><g data-name="Group 20"><path data-name="Clip 18" d="M0 9.752h261.072v34.78H0z" fill="none"/><g data-name="Group 20" clip-path="url(#b)" fill="#fffffe" transform="translate(0 9.752)"><path data-name="Fill 17" d="M252.393 22.644v9.573h-5.457v-9.573l-8.488-13.019h6.605l4.819 8.36 4.818-8.36h6.382l-8.68 13.019"/><path data-name="Fill 19" d="M18.353 13.266V8.525H8.106v17.87h10.247v-4.881h8.131V28.6l-8.131 6.18H8.106l-8.131-6.942V6.942L8.106 0h6.869l3.379 2.962V0h8.131v13.266h-8.132"/></g></g><path data-name="Fill 21" d="M11.751 1.137h6.755V0h-6.755z" fill="#fffffe"/><path data-name="Fill 22" d="M20.552 1.137h2.185V0h-2.185z" fill="#fffffe"/><path data-name="Fill 23" d="M11.751 6.82h10.986V5.683H11.751z" fill="#fffffe"/><path data-name="Fill 24" d="M11.751 3.979h3.345V2.842h-3.345z" fill="#fffffe"/><path data-name="Fill 25" d="M17.142 3.979h5.6V2.842h-5.6z" fill="#fffffe"/></svg>