<svg xmlns="http://www.w3.org/2000/svg" width="40" height="32.001" viewBox="0 0 40 32.001"><g fill="#014c44"><path d="M16.211 5.418c-3.943 2.2-5.974 4.6-6.29 8.675 1.445.006 2.634.025 3.606.049a4.218 4.218 0 014.2 4.2c.03 1.204.052 2.73.052 4.64 0 2.062-.026 3.677-.062 4.918a4 4 0 01-3.896 4.013c-1.236.051-2.848.087-4.931.087s-3.7-.036-4.931-.087a4 4 0 01-3.9-4.009 168.626 168.626 0 01-.062-4.872v-8.941h.041C.565 6.561 6.127 2.074 12.43.135a2.55 2.55 0 012.537.5 13.366 13.366 0 011.937 2.43 1.676 1.676 0 01-.693 2.353z"/><path data-name="Path" d="M31.902 14.093c.316-4.075 2.346-6.475 6.29-8.675a1.676 1.676 0 00.693-2.352A13.366 13.366 0 0036.951.635a2.55 2.55 0 00-2.537-.5c-6.3 1.939-11.865 6.426-12.392 13.956h-.041v8.941c0 2.039.026 3.637.062 4.872a4 4 0 003.897 4.009c1.235.051 2.847.087 4.931.087s3.7-.036 4.931-.087a4 4 0 003.896-4.013c.036-1.241.062-2.856.062-4.918 0-1.91-.022-3.436-.054-4.64a4.218 4.218 0 00-4.2-4.2c-.97-.025-2.159-.042-3.604-.049z"/></g></svg>